HIERARCHY
ROOT Hips
{
    OFFSET 0.000000 0.000000 0.000000
    CHANNELS 6 Xposition Yposition Zposition Zrotation Xrotation Yrotation
    JOINT Spine
    {
        OFFSET -0.000000 14.517291 0.000000
        CHANNELS 3 Zrotation Xrotation Yrotation
        JOINT Spine1
        {
            OFFSET -0.000000 37.558300 0.000000
            CHANNELS 3 Zrotation Xrotation Yrotation
            JOINT Neck
            {
                OFFSET -0.000000 37.404057 3.400369
                CHANNELS 3 Zrotation Xrotation Yrotation
                JOINT Head
                {
                    OFFSET -0.000000 24.785618 -3.540803
                    CHANNELS 3 Zrotation Xrotation Yrotation
                    End Site
                    {
                        OFFSET -0.000000 35.408028 0.000000
                    }
                }
            }
            JOINT LeftShoulder
            {
                OFFSET 6.992933 33.973492 -0.192664
                CHANNELS 3 Zrotation Xrotation Yrotation
                JOINT LeftArm
                {
                    OFFSET 21.527611 0.000000 0.000000
                    CHANNELS 3 Zrotation Xrotation Yrotation
                    JOINT LeftForeArm
                    {
                        OFFSET 56.353916 0.000000 0.000000
                        CHANNELS 3 Zrotation Xrotation Yrotation
                        JOINT LeftHand
                        {
                            OFFSET 47.774071 0.000000 0.000000
                            CHANNELS 3 Zrotation Xrotation Yrotation
                            End Site
                            {
                                OFFSET 26.556021 0.000000 0.000000
                            }
                        }
                    }
                }
            }
            JOINT RightShoulder
            {
                OFFSET -7.065357 33.973492 -0.192664
                CHANNELS 3 Zrotation Xrotation Yrotation
                JOINT RightArm
                {
                    OFFSET -21.527611 0.000000 0.000000
                    CHANNELS 3 Zrotation Xrotation Yrotation
                    JOINT RightForeArm
                    {
                        OFFSET -56.353916 0.000000 0.000000
                        CHANNELS 3 Zrotation Xrotation Yrotation
                        JOINT RightHand
                        {
                            OFFSET -47.774071 0.000000 0.000000
                            CHANNELS 3 Zrotation Xrotation Yrotation
                            End Site
                            {
                                OFFSET -26.556021 0.000000 0.000000
                            }
                        }
                    }
                }
            }
        }
    }
    JOINT LeftUpLeg
    {
        OFFSET 17.704014 0.000000 0.000000
        CHANNELS 3 Zrotation Xrotation Yrotation
        JOINT LeftLeg
        {
            OFFSET -0.000000 -81.181816 0.000000
            CHANNELS 3 Zrotation Xrotation Yrotation
            JOINT LeftFoot
            {
                OFFSET -0.000000 -62.821102 0.000000
                CHANNELS 3 Zrotation Xrotation Yrotation
                JOINT LeftToeBase
                {
                    OFFSET -0.000000 -11.507608 26.556021
                    CHANNELS 3 Zrotation Xrotation Yrotation
                    End Site
                    {
                        OFFSET -0.000000 0.000000 7.081605
                    }
                }
            }
        }
    }
    JOINT RightUpLeg
    {
        OFFSET -17.704014 0.000000 0.000000
        CHANNELS 3 Zrotation Xrotation Yrotation
        JOINT RightLeg
        {
            OFFSET -0.000000 -81.181816 0.000000
            CHANNELS 3 Zrotation Xrotation Yrotation
            JOINT RightFoot
            {
                OFFSET -0.000000 -62.821102 0.000000
                CHANNELS 3 Zrotation Xrotation Yrotation
                JOINT RightToeBase
                {
                    OFFSET -0.000000 -11.507608 26.556021
                    CHANNELS 3 Zrotation Xrotation Yrotation
                    End Site
                    {
                        OFFSET -0.000000 0.000000 7.081605
                    }
                }
            }
        }
    }
}
MOTION
Frames:    13
Frame Time:    0.008333
-27.959595    156.967209    -48.184986    -10.952667    31.423624    34.186806    6.265287    8.645452    -0.909313    -1.158543    -2.047220    -0.163587    6.675832    -1.723279    -10.274053    4.947059    -9.505711    -10.689309    3.820415    8.495097    -16.116234    -32.668118    19.808617    -54.681969    3.624474    -37.822536    -113.048744    -9.720191    -32.453964    -12.681090    0.542208    8.810332    -1.471940    25.431871    14.539870    47.832760    -8.585475    6.884658    43.410461    -19.454374    3.638752    37.548973    14.851349    -24.884731    3.888786    -7.356892    11.692248    -13.386162    -16.508818    -13.381365    46.233597    0.000000    0.000000    0.000000    -30.674910    -58.768326    -21.570789    13.971989    32.219387    -10.528439    -2.353553    -1.143527    -15.445200    0.000000    0.000000    0.000000    
-27.946991    156.961960    -48.175690    -10.952656    31.468996    34.170685    6.260639    8.638491    -0.916051    -1.142895    -2.044694    -0.166147    6.658780    -1.742147    -10.255479    4.979784    -9.488814    -10.661763    3.810971    8.496063    -16.119871    -32.670391    19.828753    -54.673767    3.635874    -37.829739    -113.046989    -9.798921    -32.435741    -12.735505    0.530218    8.809625    -1.475135    25.432398    14.526887    47.840569    -8.593877    6.883729    43.394524    -19.460243    3.636960    37.553028    14.831641    -24.906424    3.930293    -7.349657    11.688331    -13.388780    -16.515074    -13.375964    46.224438    0.000000    0.000000    0.000000    -30.728586    -58.811790    -21.634485    13.962594    32.246376    -10.504365    -2.353663    -1.164709    -15.440016    0.000000    0.000000    0.000000    
-27.934998    156.955887    -48.163574    -10.954695    31.505241    34.162045    6.268268    8.615828    -0.920526    -1.143426    -2.014601    -0.167509    6.641551    -1.750330    -10.249639    5.035142    -9.497614    -10.640714    3.813197    8.488706    -16.135033    -32.661793    19.837654    -54.665298    3.610723    -37.806839    -113.080734    -9.775835    -32.443459    -12.724521    0.519867    8.794515    -1.486848    25.436062    14.513821    47.845249    -8.581351    6.879679    43.376514    -19.474348    3.623334    37.542934    14.816163    -24.928942    3.995951    -7.333745    11.699364    -13.423956    -16.526451    -13.392850    46.215420    0.000000    0.000000    0.000000    -30.778866    -58.844318    -21.702177    13.957522    32.273109    -10.474462    -2.358468    -1.186378    -15.426088    0.000000    0.000000    0.000000    
-27.917746    156.953415    -48.141941    -10.947349    31.513504    34.143822    6.289150    8.625626    -0.925154    -1.160561    -2.002130    -0.168260    6.624048    -1.744573    -10.256181    5.117157    -9.507776    -10.625748    3.825886    8.488892    -16.146019    -32.657852    19.835106    -54.654224    3.585281    -37.762505    -113.114357    -9.775812    -32.425018    -12.733479    0.524806    8.792238    -1.495220    25.440165    14.499212    47.845646    -8.554247    6.859513    43.361851    -19.465399    3.599323    37.515755    14.807135    -24.917442    4.061281    -7.318847    11.703355    -13.436418    -16.525003    -13.373843    46.177052    0.000000    0.000000    0.000000    -30.790623    -58.847359    -21.705719    13.977412    32.288258    -10.475377    -2.358594    -1.202645    -15.437151    0.000000    0.000000    0.000000    
-27.904463    156.950790    -48.132652    -10.936310    31.533474    34.122662    6.290162    8.623729    -0.927915    -1.162834    -1.974622    -0.168980    6.606522    -1.775290    -10.247796    5.181572    -9.503033    -10.601891    3.831330    8.483243    -16.139771    -32.641941    19.843973    -54.669525    3.552800    -37.729523    -113.158157    -9.762831    -32.430481    -12.712423    0.515300    8.773503    -1.505872    25.425518    14.532456    47.852856    -8.577226    6.803051    43.349277    -19.449320    3.562859    37.481377    14.793108    -24.919672    4.115144    -7.311333    11.713543    -13.470823    -16.539267    -13.395926    46.175541    0.000000    0.000000    0.000000    -30.809818    -58.865673    -21.730177    13.967836    32.305637    -10.478949    -2.351626    -1.221546    -15.408359    0.000000    0.000000    0.000000    
-27.890814    156.948990    -48.120533    -10.920775    31.544916    34.100067    6.295123    8.635655    -0.939091    -1.172373    -1.972073    -0.172607    6.574505    -1.762659    -10.249582    5.277591    -9.521378    -10.575664    3.827248    8.479949    -16.139353    -32.630177    19.853842    -54.646351    3.524441    -37.691727    -113.206932    -9.781382    -32.419304    -12.729115    0.509239    8.789364    -1.497117    25.425934    14.532921    47.857735    -8.598567    6.773613    43.336193    -19.448694    3.544051    37.464684    14.777783    -24.916168    4.175704    -7.295065    11.733213    -13.539741    -16.534218    -13.403181    46.188271    0.000000    0.000000    0.000000    -30.824598    -58.866558    -21.739443    13.978044    32.311226    -10.482274    -2.350337    -1.243722    -15.399816    0.000000    0.000000    0.000000    
-27.877176    156.948608    -48.101490    -10.905291    31.532770    34.073574    6.293905    8.660647    -0.931601    -1.167098    -1.957187    -0.169530    6.613735    -1.741218    -10.239986    5.284013    -9.591242    -10.566310    3.840086    8.483704    -16.142805    -32.607197    19.864901    -54.662968    3.513310    -37.667271    -113.231880    -9.820992    -32.401405    -12.732685    0.511096    8.783831    -1.504579    25.426113    14.530658    47.842987    -8.604925    6.745237    43.327545    -19.455462    3.518995    37.443562    14.776588    -24.890207    4.236376    -7.283146    11.749890    -13.598307    -16.536324    -13.422132    46.197948    0.000000    0.000000    0.000000    -30.792553    -58.847675    -21.726715    13.970420    32.316036    -10.489682    -2.341846    -1.272648    -15.364871    0.000000    0.000000    0.000000    
-27.860092    156.950729    -48.100166    -10.890095    31.555922    34.044170    6.286067    8.659483    -0.929310    -1.181262    -1.955798    -0.169295    6.639000    -1.729474    -10.233366    5.311849    -9.621279    -10.555357    3.853101    8.486867    -16.147316    -32.604801    19.862028    -54.644783    3.460290    -37.591579    -113.294579    -9.818871    -32.383717    -12.731897    0.520714    8.804215    -1.499077    25.409245    14.535833    47.848328    -8.638959    6.704253    43.290249    -19.435390    3.495721    37.440643    14.754467    -24.900566    4.277225    -7.272606    11.771864    -13.633845    -16.514227    -13.418242    46.206619    0.000000    0.000000    0.000000    -30.820108    -58.863647    -21.757088    13.964051    32.322964    -10.478376    -2.329833    -1.275245    -15.347801    0.000000    0.000000    0.000000    
-27.838745    156.949081    -48.096691    -10.872683    31.573050    34.014687    6.270840    8.651391    -0.923195    -1.174344    -1.940920    -0.167164    6.636696    -1.729615    -10.222029    5.355716    -9.636520    -10.532716    3.854347    8.482857    -16.142740    -32.591110    19.874992    -54.637299    3.435010    -37.539474    -113.335510    -9.817216    -32.358414    -12.717546    0.508612    8.816710    -1.503272    25.394691    14.556843    47.858871    -8.681000    6.650465    43.254932    -19.399670    3.466728    37.446110    14.730267    -24.901958    4.314612    -7.261303    11.793160    -13.672037    -16.500690    -13.434245    46.221664    0.000000    0.000000    0.000000    -30.845541    -58.868408    -21.787666    13.955870    32.332092    -10.496701    -2.293182    -1.305693    -15.286057    0.000000    0.000000    0.000000    
-27.816444    156.945724    -48.088787    -10.859062    31.576059    33.988716    6.269752    8.649250    -0.919074    -1.178104    -1.930054    -0.165994    6.646510    -1.725685    -10.214520    5.390234    -9.649302    -10.518023    3.859935    8.476306    -16.148512    -32.601887    19.879023    -54.606647    3.395453    -37.462692    -113.388710    -9.843045    -32.320175    -12.723842    0.503870    8.824643    -1.501012    25.402056    14.554956    47.855999    -8.688780    6.633400    43.218082    -19.413944    3.444994    37.443306    14.721317    -24.892141    4.310668    -7.265031    11.811557    -13.687710    -16.478609    -13.455340    46.231621    0.000000    0.000000    0.000000    -30.849358    -58.862392    -21.813633    13.942479    32.342766    -10.508931    -2.254730    -1.340338    -15.234323    0.000000    0.000000    0.000000    
-27.796185    156.938721    -48.081909    -10.849855    31.587494    33.961346    6.251189    8.638577    -0.915109    -1.153779    -1.932066    -0.164794    6.627079    -1.733719    -10.202779    5.432747    -9.622488    -10.494853    3.839089    8.473860    -16.133642    -32.576241    19.904434    -54.588703    3.359283    -37.412224    -113.437592    -9.827857    -32.312695    -12.694764    0.479884    8.847573    -1.486813    25.405659    14.569395    47.856499    -8.727345    6.601725    43.175163    -19.415400    3.426234    37.432869    14.709831    -24.891262    4.329385    -7.262678    11.831339    -13.692659    -16.468864    -13.491852    46.245163    0.000000    0.000000    0.000000    -30.857719    -58.870689    -21.826281    13.935748    32.357685    -10.511992    -2.229574    -1.376614    -15.192101    0.000000    0.000000    0.000000    
-27.769596    156.929489    -48.078346    -10.837770    31.599804    33.938354    6.244752    8.617507    -0.908982    -1.157011    -1.924350    -0.163501    6.627425    -1.751834    -10.192947    5.460808    -9.588947    -10.481066    3.836638    8.466492    -16.139648    -32.564468    19.929207    -54.554501    3.354075    -37.381584    -113.463234    -9.909422    -32.273438    -12.743972    0.482530    8.863701    -1.492143    25.385355    14.598437    47.864887    -8.756322    6.552423    43.133568    -19.386415    3.398269    37.413864    14.690999    -24.890200    4.324212    -7.261519    11.848775    -13.672393    -16.457062    -13.520036    46.232426    0.000000    0.000000    0.000000    -30.882555    -58.875992    -21.870165    13.930714    32.376919    -10.519844    -2.219783    -1.405724    -15.155639    0.000000    0.000000    0.000000    
-27.746078    156.919525    -48.067005    -10.827926    31.605221    33.907185    6.225595    8.600348    -0.899235    -1.133546    -1.923528    -0.160573    6.576394    -1.742958    -10.192246    5.548760    -9.576671    -10.452472    3.815595    8.466397    -16.123301    -32.547417    19.946747    -54.535378    3.339752    -37.335419    -113.493172    -9.890216    -32.244144    -12.716714    0.456814    8.880499    -1.487782    25.393608    14.624041    47.869358    -8.777445    6.523124    43.088520    -19.382288    3.377656    37.398190    14.689307    -24.874380    4.322415    -7.275331    11.850949    -13.643302    -16.426981    -13.532812    46.234890    0.000000    0.000000    0.000000    -30.872818    -58.887863    -21.866070    13.922376    32.402073    -10.503387    -2.202463    -1.438286    -15.150484    0.000000    0.000000    0.000000    
